<mxfile host="65bd71144e">
    <diagram id="eis0ousjy2yVJXxXQW8T" name="Page-1">
        <mxGraphModel dx="2656" dy="2650" grid="1" gridSize="10" guides="1" tooltips="1" connect="1" arrows="1" fold="1" page="1" pageScale="1" pageWidth="850" pageHeight="1100" math="0" shadow="0">
            <root>
                <mxCell id="0"/>
                <mxCell id="1" parent="0"/>
                <mxCell id="3" value="begin" style="rounded=1;whiteSpace=wrap;html=1;verticalAlign=middle;arcSize=10;fillColor=#fa6800;fontColor=#000000;fontSize=22;strokeColor=#000000;" vertex="1" parent="1">
                    <mxGeometry x="330" y="35" width="70" height="40" as="geometry"/>
                </mxCell>
                <mxCell id="4" value="S" style="rounded=1;whiteSpace=wrap;html=1;verticalAlign=middle;arcSize=10;fillColor=#a20025;fontColor=#ffffff;fontSize=22;strokeColor=#000000;" vertex="1" parent="1">
                    <mxGeometry x="420" y="35" width="70" height="40" as="geometry"/>
                </mxCell>
                <mxCell id="5" value=";" style="rounded=1;whiteSpace=wrap;html=1;verticalAlign=middle;arcSize=10;fillColor=#a20025;fontColor=#ffffff;fontSize=22;strokeColor=#000000;" vertex="1" parent="1">
                    <mxGeometry x="510" y="35" width="70" height="40" as="geometry"/>
                </mxCell>
                <mxCell id="6" value="S" style="rounded=1;whiteSpace=wrap;html=1;verticalAlign=middle;arcSize=10;fillColor=#a20025;fontColor=#ffffff;fontSize=22;strokeColor=#000000;" vertex="1" parent="1">
                    <mxGeometry x="600" y="35" width="70" height="40" as="geometry"/>
                </mxCell>
                <mxCell id="7" value=";" style="rounded=1;whiteSpace=wrap;html=1;verticalAlign=middle;arcSize=10;fillColor=#a20025;fontColor=#ffffff;fontSize=22;strokeColor=#000000;" vertex="1" parent="1">
                    <mxGeometry x="690" y="35" width="70" height="40" as="geometry"/>
                </mxCell>
                <mxCell id="8" value="end" style="rounded=1;whiteSpace=wrap;html=1;verticalAlign=middle;arcSize=10;fillColor=#a20025;fontColor=#ffffff;fontSize=22;strokeColor=#000000;" vertex="1" parent="1">
                    <mxGeometry x="780" y="35" width="70" height="40" as="geometry"/>
                </mxCell>
                <mxCell id="9" value="" style="shape=curlyBracket;whiteSpace=wrap;html=1;rounded=1;flipH=1;fontSize=17;verticalAlign=middle;rotation=-90;strokeColor=#000000;" vertex="1" parent="1">
                    <mxGeometry x="620" y="-200" width="20" height="430" as="geometry"/>
                </mxCell>
                <mxCell id="10" value="Tokens" style="text;html=1;fillColor=none;align=center;verticalAlign=middle;whiteSpace=wrap;rounded=0;fontSize=17;" vertex="1" parent="1">
                    <mxGeometry x="605" y="-20" width="60" height="20" as="geometry"/>
                </mxCell>
                <mxCell id="11" value="Stack" style="text;html=1;fillColor=none;align=center;verticalAlign=middle;whiteSpace=wrap;rounded=0;fontSize=17;" vertex="1" parent="1">
                    <mxGeometry x="57.5" y="-20" width="60" height="20" as="geometry"/>
                </mxCell>
                <mxCell id="12" value="" style="shape=curlyBracket;whiteSpace=wrap;html=1;rounded=1;flipH=1;fontSize=17;verticalAlign=middle;rotation=-90;strokeColor=#000000;" vertex="1" parent="1">
                    <mxGeometry x="77.5" y="-192.5" width="20" height="415" as="geometry"/>
                </mxCell>
                <mxCell id="13" value="begin" style="rounded=1;whiteSpace=wrap;html=1;verticalAlign=middle;arcSize=10;fillColor=#d80073;fontColor=#ffffff;fontSize=22;strokeColor=#000000;" vertex="1" parent="1">
                    <mxGeometry x="240" y="100" width="70" height="40" as="geometry"/>
                </mxCell>
                <mxCell id="14" value="S" style="rounded=1;whiteSpace=wrap;html=1;verticalAlign=middle;arcSize=10;fillColor=#fa6800;fontColor=#000000;fontSize=22;strokeColor=#000000;" vertex="1" parent="1">
                    <mxGeometry x="330" y="100" width="70" height="40" as="geometry"/>
                </mxCell>
                <mxCell id="15" value=";" style="rounded=1;whiteSpace=wrap;html=1;verticalAlign=middle;arcSize=10;fillColor=#a20025;fontColor=#ffffff;fontSize=22;strokeColor=#000000;" vertex="1" parent="1">
                    <mxGeometry x="420" y="100" width="70" height="40" as="geometry"/>
                </mxCell>
                <mxCell id="16" value="S" style="rounded=1;whiteSpace=wrap;html=1;verticalAlign=middle;arcSize=10;fillColor=#a20025;fontColor=#ffffff;fontSize=22;strokeColor=#000000;" vertex="1" parent="1">
                    <mxGeometry x="510" y="100" width="70" height="40" as="geometry"/>
                </mxCell>
                <mxCell id="17" value=";" style="rounded=1;whiteSpace=wrap;html=1;verticalAlign=middle;arcSize=10;fillColor=#a20025;fontColor=#ffffff;fontSize=22;strokeColor=#000000;" vertex="1" parent="1">
                    <mxGeometry x="600" y="100" width="70" height="40" as="geometry"/>
                </mxCell>
                <mxCell id="18" value="end" style="rounded=1;whiteSpace=wrap;html=1;verticalAlign=middle;arcSize=10;fillColor=#a20025;fontColor=#ffffff;fontSize=22;strokeColor=#000000;" vertex="1" parent="1">
                    <mxGeometry x="690" y="100" width="70" height="40" as="geometry"/>
                </mxCell>
                <mxCell id="19" value="begin" style="rounded=1;whiteSpace=wrap;html=1;verticalAlign=middle;arcSize=10;fillColor=#d80073;fontColor=#ffffff;fontSize=22;strokeColor=#000000;" vertex="1" parent="1">
                    <mxGeometry x="240" y="170" width="70" height="40" as="geometry"/>
                </mxCell>
                <mxCell id="21" value=";" style="rounded=1;whiteSpace=wrap;html=1;verticalAlign=middle;arcSize=10;fillColor=#a20025;fontColor=#ffffff;fontSize=22;strokeColor=#000000;" vertex="1" parent="1">
                    <mxGeometry x="420" y="170" width="70" height="40" as="geometry"/>
                </mxCell>
                <mxCell id="22" value="S" style="rounded=1;whiteSpace=wrap;html=1;verticalAlign=middle;arcSize=10;fillColor=#a20025;fontColor=#ffffff;fontSize=22;strokeColor=#000000;" vertex="1" parent="1">
                    <mxGeometry x="510" y="170" width="70" height="40" as="geometry"/>
                </mxCell>
                <mxCell id="23" value=";" style="rounded=1;whiteSpace=wrap;html=1;verticalAlign=middle;arcSize=10;fillColor=#a20025;fontColor=#ffffff;fontSize=22;strokeColor=#000000;" vertex="1" parent="1">
                    <mxGeometry x="600" y="170" width="70" height="40" as="geometry"/>
                </mxCell>
                <mxCell id="24" value="end" style="rounded=1;whiteSpace=wrap;html=1;verticalAlign=middle;arcSize=10;fillColor=#a20025;fontColor=#ffffff;fontSize=22;strokeColor=#000000;" vertex="1" parent="1">
                    <mxGeometry x="690" y="170" width="70" height="40" as="geometry"/>
                </mxCell>
                <mxCell id="25" value="stat" style="rounded=1;whiteSpace=wrap;html=1;verticalAlign=top;arcSize=10;fillColor=#0050ef;fontColor=#ffffff;strokeColor=#000000;" vertex="1" parent="1">
                    <mxGeometry x="330" y="170" width="70" height="60" as="geometry"/>
                </mxCell>
                <mxCell id="26" value="S" style="rounded=1;whiteSpace=wrap;html=1;fillColor=#d80073;fontColor=#ffffff;fontSize=22;strokeColor=#000000;" vertex="1" parent="1">
                    <mxGeometry x="335" y="195" width="60" height="25" as="geometry"/>
                </mxCell>
                <mxCell id="27" value="begin" style="rounded=1;whiteSpace=wrap;html=1;verticalAlign=middle;arcSize=10;fillColor=#d80073;fontColor=#ffffff;fontSize=22;strokeColor=#000000;" vertex="1" parent="1">
                    <mxGeometry x="150" y="260" width="70" height="40" as="geometry"/>
                </mxCell>
                <mxCell id="28" value=";" style="rounded=1;whiteSpace=wrap;html=1;verticalAlign=middle;arcSize=10;fillColor=#fa6800;fontColor=#000000;fontSize=22;strokeColor=#000000;" vertex="1" parent="1">
                    <mxGeometry x="330" y="260" width="70" height="40" as="geometry"/>
                </mxCell>
                <mxCell id="29" value="S" style="rounded=1;whiteSpace=wrap;html=1;verticalAlign=middle;arcSize=10;fillColor=#a20025;fontColor=#ffffff;fontSize=22;strokeColor=#000000;" vertex="1" parent="1">
                    <mxGeometry x="420" y="260" width="70" height="40" as="geometry"/>
                </mxCell>
                <mxCell id="30" value=";" style="rounded=1;whiteSpace=wrap;html=1;verticalAlign=middle;arcSize=10;fillColor=#a20025;fontColor=#ffffff;fontSize=22;strokeColor=#000000;" vertex="1" parent="1">
                    <mxGeometry x="510" y="260" width="70" height="40" as="geometry"/>
                </mxCell>
                <mxCell id="31" value="end" style="rounded=1;whiteSpace=wrap;html=1;verticalAlign=middle;arcSize=10;fillColor=#a20025;fontColor=#ffffff;fontSize=22;strokeColor=#000000;" vertex="1" parent="1">
                    <mxGeometry x="600" y="260" width="70" height="40" as="geometry"/>
                </mxCell>
                <mxCell id="32" value="stat" style="rounded=1;whiteSpace=wrap;html=1;verticalAlign=top;arcSize=10;fillColor=#6a00ff;fontColor=#ffffff;strokeColor=#000000;" vertex="1" parent="1">
                    <mxGeometry x="240" y="260" width="70" height="60" as="geometry"/>
                </mxCell>
                <mxCell id="33" value="S" style="rounded=1;whiteSpace=wrap;html=1;fillColor=#d80073;fontColor=#ffffff;fontSize=22;strokeColor=#000000;" vertex="1" parent="1">
                    <mxGeometry x="245" y="285" width="60" height="25" as="geometry"/>
                </mxCell>
                <mxCell id="34" value="begin" style="rounded=1;whiteSpace=wrap;html=1;verticalAlign=middle;arcSize=10;fillColor=#d80073;fontColor=#ffffff;fontSize=22;strokeColor=#000000;" vertex="1" parent="1">
                    <mxGeometry x="60" y="350" width="70" height="40" as="geometry"/>
                </mxCell>
                <mxCell id="35" value=";" style="rounded=1;whiteSpace=wrap;html=1;verticalAlign=middle;arcSize=10;fillColor=#d80073;fontColor=#ffffff;fontSize=22;strokeColor=#000000;" vertex="1" parent="1">
                    <mxGeometry x="240" y="350" width="70" height="40" as="geometry"/>
                </mxCell>
                <mxCell id="36" value="S" style="rounded=1;whiteSpace=wrap;html=1;verticalAlign=middle;arcSize=10;fillColor=#fa6800;fontColor=#000000;fontSize=22;strokeColor=#000000;" vertex="1" parent="1">
                    <mxGeometry x="330" y="350" width="70" height="40" as="geometry"/>
                </mxCell>
                <mxCell id="37" value=";" style="rounded=1;whiteSpace=wrap;html=1;verticalAlign=middle;arcSize=10;fillColor=#a20025;fontColor=#ffffff;fontSize=22;strokeColor=#000000;" vertex="1" parent="1">
                    <mxGeometry x="420" y="350" width="70" height="40" as="geometry"/>
                </mxCell>
                <mxCell id="38" value="end" style="rounded=1;whiteSpace=wrap;html=1;verticalAlign=middle;arcSize=10;fillColor=#a20025;fontColor=#ffffff;fontSize=22;strokeColor=#000000;" vertex="1" parent="1">
                    <mxGeometry x="510" y="350" width="70" height="40" as="geometry"/>
                </mxCell>
                <mxCell id="39" value="stat" style="rounded=1;whiteSpace=wrap;html=1;verticalAlign=top;arcSize=10;fillColor=#6a00ff;fontColor=#ffffff;strokeColor=#000000;" vertex="1" parent="1">
                    <mxGeometry x="150" y="350" width="70" height="60" as="geometry"/>
                </mxCell>
                <mxCell id="40" value="S" style="rounded=1;whiteSpace=wrap;html=1;fillColor=#d80073;fontColor=#ffffff;fontSize=22;strokeColor=#000000;" vertex="1" parent="1">
                    <mxGeometry x="155" y="375" width="60" height="25" as="geometry"/>
                </mxCell>
                <mxCell id="41" value="begin" style="rounded=1;whiteSpace=wrap;html=1;verticalAlign=middle;arcSize=10;fillColor=#d80073;fontColor=#ffffff;fontSize=22;strokeColor=#000000;" vertex="1" parent="1">
                    <mxGeometry x="60" y="430" width="70" height="40" as="geometry"/>
                </mxCell>
                <mxCell id="42" value=";" style="rounded=1;whiteSpace=wrap;html=1;verticalAlign=middle;arcSize=10;fillColor=#d80073;fontColor=#ffffff;fontSize=22;strokeColor=#000000;" vertex="1" parent="1">
                    <mxGeometry x="240" y="430" width="70" height="40" as="geometry"/>
                </mxCell>
                <mxCell id="44" value=";" style="rounded=1;whiteSpace=wrap;html=1;verticalAlign=middle;arcSize=10;fillColor=#a20025;fontColor=#ffffff;fontSize=22;strokeColor=#000000;" vertex="1" parent="1">
                    <mxGeometry x="420" y="430" width="70" height="40" as="geometry"/>
                </mxCell>
                <mxCell id="45" value="end" style="rounded=1;whiteSpace=wrap;html=1;verticalAlign=middle;arcSize=10;fillColor=#a20025;fontColor=#ffffff;fontSize=22;strokeColor=#000000;" vertex="1" parent="1">
                    <mxGeometry x="510" y="430" width="70" height="40" as="geometry"/>
                </mxCell>
                <mxCell id="46" value="stat" style="rounded=1;whiteSpace=wrap;html=1;verticalAlign=top;arcSize=10;fillColor=#6a00ff;fontColor=#ffffff;strokeColor=#000000;" vertex="1" parent="1">
                    <mxGeometry x="150" y="430" width="70" height="60" as="geometry"/>
                </mxCell>
                <mxCell id="47" value="S" style="rounded=1;whiteSpace=wrap;html=1;fillColor=#d80073;fontColor=#ffffff;fontSize=22;strokeColor=#000000;" vertex="1" parent="1">
                    <mxGeometry x="155" y="455" width="60" height="25" as="geometry"/>
                </mxCell>
                <mxCell id="48" value="stat" style="rounded=1;whiteSpace=wrap;html=1;verticalAlign=top;arcSize=10;fillColor=#0050ef;fontColor=#ffffff;strokeColor=#000000;" vertex="1" parent="1">
                    <mxGeometry x="330" y="430" width="70" height="60" as="geometry"/>
                </mxCell>
                <mxCell id="49" value="S" style="rounded=1;whiteSpace=wrap;html=1;fillColor=#d80073;fontColor=#ffffff;fontSize=22;strokeColor=#000000;" vertex="1" parent="1">
                    <mxGeometry x="335" y="455" width="60" height="25" as="geometry"/>
                </mxCell>
                <mxCell id="50" value="begin" style="rounded=1;whiteSpace=wrap;html=1;verticalAlign=middle;arcSize=10;fillColor=#d80073;fontColor=#ffffff;fontSize=22;strokeColor=#000000;" vertex="1" parent="1">
                    <mxGeometry x="-30" y="520" width="70" height="40" as="geometry"/>
                </mxCell>
                <mxCell id="51" value=";" style="rounded=1;whiteSpace=wrap;html=1;verticalAlign=middle;arcSize=10;fillColor=#d80073;fontColor=#ffffff;fontSize=22;strokeColor=#000000;" vertex="1" parent="1">
                    <mxGeometry x="150" y="520" width="70" height="40" as="geometry"/>
                </mxCell>
                <mxCell id="52" value=";" style="rounded=1;whiteSpace=wrap;html=1;verticalAlign=middle;arcSize=10;fillColor=#fa6800;fontColor=#000000;fontSize=22;strokeColor=#000000;" vertex="1" parent="1">
                    <mxGeometry x="330" y="520" width="70" height="40" as="geometry"/>
                </mxCell>
                <mxCell id="53" value="end" style="rounded=1;whiteSpace=wrap;html=1;verticalAlign=middle;arcSize=10;fillColor=#a20025;fontColor=#ffffff;fontSize=22;strokeColor=#000000;" vertex="1" parent="1">
                    <mxGeometry x="420" y="520" width="70" height="40" as="geometry"/>
                </mxCell>
                <mxCell id="54" value="stat" style="rounded=1;whiteSpace=wrap;html=1;verticalAlign=top;arcSize=10;fillColor=#6a00ff;fontColor=#ffffff;strokeColor=#000000;" vertex="1" parent="1">
                    <mxGeometry x="60" y="520" width="70" height="60" as="geometry"/>
                </mxCell>
                <mxCell id="55" value="S" style="rounded=1;whiteSpace=wrap;html=1;fillColor=#d80073;fontColor=#ffffff;fontSize=22;strokeColor=#000000;" vertex="1" parent="1">
                    <mxGeometry x="65" y="545" width="60" height="25" as="geometry"/>
                </mxCell>
                <mxCell id="56" value="stat" style="rounded=1;whiteSpace=wrap;html=1;verticalAlign=top;arcSize=10;fillColor=#6a00ff;fontColor=#ffffff;strokeColor=#000000;" vertex="1" parent="1">
                    <mxGeometry x="240" y="520" width="70" height="60" as="geometry"/>
                </mxCell>
                <mxCell id="57" value="S" style="rounded=1;whiteSpace=wrap;html=1;fillColor=#d80073;fontColor=#ffffff;fontSize=22;strokeColor=#000000;" vertex="1" parent="1">
                    <mxGeometry x="245" y="545" width="60" height="25" as="geometry"/>
                </mxCell>
                <mxCell id="58" value="begin" style="rounded=1;whiteSpace=wrap;html=1;verticalAlign=middle;arcSize=10;fillColor=#d80073;fontColor=#ffffff;fontSize=22;strokeColor=#000000;" vertex="1" parent="1">
                    <mxGeometry x="-120" y="600" width="70" height="40" as="geometry"/>
                </mxCell>
                <mxCell id="59" value=";" style="rounded=1;whiteSpace=wrap;html=1;verticalAlign=middle;arcSize=10;fillColor=#d80073;fontColor=#ffffff;fontSize=22;strokeColor=#000000;" vertex="1" parent="1">
                    <mxGeometry x="60" y="600" width="70" height="40" as="geometry"/>
                </mxCell>
                <mxCell id="60" value=";" style="rounded=1;whiteSpace=wrap;html=1;verticalAlign=middle;arcSize=10;fillColor=#d80073;fontColor=#ffffff;fontSize=22;strokeColor=#000000;" vertex="1" parent="1">
                    <mxGeometry x="240" y="600" width="70" height="40" as="geometry"/>
                </mxCell>
                <mxCell id="61" value="end" style="rounded=1;whiteSpace=wrap;html=1;verticalAlign=middle;arcSize=10;fillColor=#fa6800;fontColor=#000000;fontSize=22;strokeColor=#000000;" vertex="1" parent="1">
                    <mxGeometry x="330" y="600" width="70" height="40" as="geometry"/>
                </mxCell>
                <mxCell id="62" value="stat" style="rounded=1;whiteSpace=wrap;html=1;verticalAlign=top;arcSize=10;fillColor=#6a00ff;fontColor=#ffffff;strokeColor=#000000;" vertex="1" parent="1">
                    <mxGeometry x="-30" y="600" width="70" height="60" as="geometry"/>
                </mxCell>
                <mxCell id="63" value="S" style="rounded=1;whiteSpace=wrap;html=1;fillColor=#d80073;fontColor=#ffffff;fontSize=22;strokeColor=#000000;" vertex="1" parent="1">
                    <mxGeometry x="-25" y="625" width="60" height="25" as="geometry"/>
                </mxCell>
                <mxCell id="64" value="stat" style="rounded=1;whiteSpace=wrap;html=1;verticalAlign=top;arcSize=10;fillColor=#6a00ff;fontColor=#ffffff;strokeColor=#000000;" vertex="1" parent="1">
                    <mxGeometry x="150" y="600" width="70" height="60" as="geometry"/>
                </mxCell>
                <mxCell id="65" value="S" style="rounded=1;whiteSpace=wrap;html=1;fillColor=#d80073;fontColor=#ffffff;fontSize=22;strokeColor=#000000;" vertex="1" parent="1">
                    <mxGeometry x="155" y="625" width="60" height="25" as="geometry"/>
                </mxCell>
                <mxCell id="66" value="statlist" style="rounded=1;whiteSpace=wrap;html=1;verticalAlign=top;arcSize=10;fillColor=#0050ef;fontColor=#ffffff;strokeColor=#000000;" vertex="1" parent="1">
                    <mxGeometry x="325" y="680" width="70" height="60" as="geometry"/>
                </mxCell>
                <mxCell id="67" value="end" style="rounded=1;whiteSpace=wrap;html=1;fillColor=#d80073;fontColor=#ffffff;fontSize=22;strokeColor=#000000;" vertex="1" parent="1">
                    <mxGeometry x="330" y="705" width="60" height="25" as="geometry"/>
                </mxCell>
                <mxCell id="68" value="begin" style="rounded=1;whiteSpace=wrap;html=1;verticalAlign=middle;arcSize=10;fillColor=#d80073;fontColor=#ffffff;fontSize=22;strokeColor=#000000;" vertex="1" parent="1">
                    <mxGeometry x="-120" y="680" width="70" height="40" as="geometry"/>
                </mxCell>
                <mxCell id="69" value=";" style="rounded=1;whiteSpace=wrap;html=1;verticalAlign=middle;arcSize=10;fillColor=#d80073;fontColor=#ffffff;fontSize=22;strokeColor=#000000;" vertex="1" parent="1">
                    <mxGeometry x="60" y="680" width="70" height="40" as="geometry"/>
                </mxCell>
                <mxCell id="70" value=";" style="rounded=1;whiteSpace=wrap;html=1;verticalAlign=middle;arcSize=10;fillColor=#d80073;fontColor=#ffffff;fontSize=22;strokeColor=#000000;" vertex="1" parent="1">
                    <mxGeometry x="240" y="680" width="70" height="40" as="geometry"/>
                </mxCell>
                <mxCell id="71" value="stat" style="rounded=1;whiteSpace=wrap;html=1;verticalAlign=top;arcSize=10;fillColor=#6a00ff;fontColor=#ffffff;strokeColor=#000000;" vertex="1" parent="1">
                    <mxGeometry x="-30" y="680" width="70" height="60" as="geometry"/>
                </mxCell>
                <mxCell id="72" value="S" style="rounded=1;whiteSpace=wrap;html=1;fillColor=#d80073;fontColor=#ffffff;fontSize=22;strokeColor=#000000;" vertex="1" parent="1">
                    <mxGeometry x="-25" y="705" width="60" height="25" as="geometry"/>
                </mxCell>
                <mxCell id="73" value="stat" style="rounded=1;whiteSpace=wrap;html=1;verticalAlign=top;arcSize=10;fillColor=#6a00ff;fontColor=#ffffff;strokeColor=#000000;" vertex="1" parent="1">
                    <mxGeometry x="150" y="680" width="70" height="60" as="geometry"/>
                </mxCell>
                <mxCell id="74" value="S" style="rounded=1;whiteSpace=wrap;html=1;fillColor=#d80073;fontColor=#ffffff;fontSize=22;strokeColor=#000000;" vertex="1" parent="1">
                    <mxGeometry x="155" y="705" width="60" height="25" as="geometry"/>
                </mxCell>
                <mxCell id="77" value="begin" style="rounded=1;whiteSpace=wrap;html=1;verticalAlign=middle;arcSize=10;fillColor=#d80073;fontColor=#ffffff;fontSize=22;strokeColor=#000000;" vertex="1" parent="1">
                    <mxGeometry x="-120" y="770" width="70" height="40" as="geometry"/>
                </mxCell>
                <mxCell id="78" value=";" style="rounded=1;whiteSpace=wrap;html=1;verticalAlign=middle;arcSize=10;fillColor=#d80073;fontColor=#ffffff;fontSize=22;strokeColor=#000000;" vertex="1" parent="1">
                    <mxGeometry x="60" y="770" width="70" height="40" as="geometry"/>
                </mxCell>
                <mxCell id="80" value="stat" style="rounded=1;whiteSpace=wrap;html=1;verticalAlign=top;arcSize=10;fillColor=#6a00ff;fontColor=#ffffff;strokeColor=#000000;" vertex="1" parent="1">
                    <mxGeometry x="-30" y="770" width="70" height="60" as="geometry"/>
                </mxCell>
                <mxCell id="81" value="S" style="rounded=1;whiteSpace=wrap;html=1;fillColor=#d80073;fontColor=#ffffff;fontSize=22;strokeColor=#000000;" vertex="1" parent="1">
                    <mxGeometry x="-25" y="795" width="60" height="25" as="geometry"/>
                </mxCell>
                <mxCell id="84" value="statlist" style="rounded=1;whiteSpace=wrap;html=1;verticalAlign=top;arcSize=10;fillColor=#0050ef;fontColor=#ffffff;strokeColor=#000000;" vertex="1" parent="1">
                    <mxGeometry x="170" y="770" width="220" height="60" as="geometry"/>
                </mxCell>
                <mxCell id="93" style="edgeStyle=none;html=1;exitX=0.5;exitY=1;exitDx=0;exitDy=0;entryX=0.5;entryY=0;entryDx=0;entryDy=0;endArrow=open;endFill=0;endSize=10;strokeColor=#000000;" edge="1" parent="1" source="85" target="91">
                    <mxGeometry relative="1" as="geometry"/>
                </mxCell>
                <mxCell id="85" value="stat" style="rounded=1;whiteSpace=wrap;html=1;fillColor=#6a00ff;fontColor=#ffffff;strokeColor=#000000;" vertex="1" parent="1">
                    <mxGeometry x="180" y="800" width="60" height="25" as="geometry"/>
                </mxCell>
                <mxCell id="86" value=";" style="rounded=1;whiteSpace=wrap;html=1;fillColor=#d80073;fontColor=#ffffff;fontSize=17;strokeColor=#000000;" vertex="1" parent="1">
                    <mxGeometry x="250" y="800" width="60" height="25" as="geometry"/>
                </mxCell>
                <mxCell id="90" style="edgeStyle=none;html=1;exitX=0.5;exitY=1;exitDx=0;exitDy=0;entryX=0.5;entryY=0;entryDx=0;entryDy=0;endArrow=open;endFill=0;endSize=10;strokeColor=#000000;" edge="1" parent="1" source="87" target="88">
                    <mxGeometry relative="1" as="geometry"/>
                </mxCell>
                <mxCell id="87" value="statlist" style="rounded=1;whiteSpace=wrap;html=1;fillColor=#6a00ff;fontColor=#ffffff;strokeColor=#000000;" vertex="1" parent="1">
                    <mxGeometry x="320" y="800" width="60" height="25" as="geometry"/>
                </mxCell>
                <mxCell id="88" value="statlist" style="rounded=1;whiteSpace=wrap;html=1;verticalAlign=top;arcSize=10;fillColor=#6a00ff;fontColor=#ffffff;strokeColor=#000000;" vertex="1" parent="1">
                    <mxGeometry x="315" y="850" width="70" height="60" as="geometry"/>
                </mxCell>
                <mxCell id="89" value="end" style="rounded=1;whiteSpace=wrap;html=1;fillColor=#d80073;fontColor=#ffffff;fontSize=22;strokeColor=#000000;" vertex="1" parent="1">
                    <mxGeometry x="320" y="875" width="60" height="25" as="geometry"/>
                </mxCell>
                <mxCell id="91" value="stat" style="rounded=1;whiteSpace=wrap;html=1;verticalAlign=top;arcSize=10;fillColor=#6a00ff;fontColor=#ffffff;strokeColor=#000000;" vertex="1" parent="1">
                    <mxGeometry x="175" y="850" width="70" height="60" as="geometry"/>
                </mxCell>
                <mxCell id="92" value="S" style="rounded=1;whiteSpace=wrap;html=1;fillColor=#d80073;fontColor=#ffffff;fontSize=22;strokeColor=#000000;" vertex="1" parent="1">
                    <mxGeometry x="180" y="875" width="60" height="25" as="geometry"/>
                </mxCell>
                <mxCell id="94" value="begin" style="rounded=1;whiteSpace=wrap;html=1;verticalAlign=middle;arcSize=10;fillColor=#d80073;fontColor=#ffffff;fontSize=22;strokeColor=#000000;" vertex="1" parent="1">
                    <mxGeometry x="80" y="950" width="70" height="40" as="geometry"/>
                </mxCell>
                <mxCell id="98" value="statlist" style="rounded=1;whiteSpace=wrap;html=1;verticalAlign=top;arcSize=10;fillColor=#6a00ff;fontColor=#ffffff;strokeColor=#000000;" vertex="1" parent="1">
                    <mxGeometry x="250" y="1040" width="220" height="60" as="geometry"/>
                </mxCell>
                <mxCell id="99" style="edgeStyle=none;html=1;exitX=0.5;exitY=1;exitDx=0;exitDy=0;entryX=0.5;entryY=0;entryDx=0;entryDy=0;endArrow=open;endFill=0;endSize=10;strokeColor=#000000;" edge="1" parent="1" source="100" target="106">
                    <mxGeometry relative="1" as="geometry"/>
                </mxCell>
                <mxCell id="100" value="stat" style="rounded=1;whiteSpace=wrap;html=1;fillColor=#6a00ff;fontColor=#ffffff;strokeColor=#000000;" vertex="1" parent="1">
                    <mxGeometry x="260" y="1070" width="60" height="25" as="geometry"/>
                </mxCell>
                <mxCell id="101" value=";" style="rounded=1;whiteSpace=wrap;html=1;fillColor=#d80073;fontColor=#ffffff;fontSize=17;strokeColor=#000000;" vertex="1" parent="1">
                    <mxGeometry x="330" y="1070" width="60" height="25" as="geometry"/>
                </mxCell>
                <mxCell id="102" style="edgeStyle=none;html=1;exitX=0.5;exitY=1;exitDx=0;exitDy=0;entryX=0.5;entryY=0;entryDx=0;entryDy=0;endArrow=open;endFill=0;endSize=10;strokeColor=#000000;" edge="1" parent="1" source="103" target="104">
                    <mxGeometry relative="1" as="geometry"/>
                </mxCell>
                <mxCell id="103" value="statlist" style="rounded=1;whiteSpace=wrap;html=1;fillColor=#6a00ff;fontColor=#ffffff;strokeColor=#000000;" vertex="1" parent="1">
                    <mxGeometry x="400" y="1070" width="60" height="25" as="geometry"/>
                </mxCell>
                <mxCell id="104" value="statlist" style="rounded=1;whiteSpace=wrap;html=1;verticalAlign=top;arcSize=10;fillColor=#6a00ff;fontColor=#ffffff;strokeColor=#000000;" vertex="1" parent="1">
                    <mxGeometry x="395" y="1120" width="70" height="60" as="geometry"/>
                </mxCell>
                <mxCell id="105" value="end" style="rounded=1;whiteSpace=wrap;html=1;fillColor=#d80073;fontColor=#ffffff;fontSize=22;strokeColor=#000000;" vertex="1" parent="1">
                    <mxGeometry x="400" y="1145" width="60" height="25" as="geometry"/>
                </mxCell>
                <mxCell id="106" value="stat" style="rounded=1;whiteSpace=wrap;html=1;verticalAlign=top;arcSize=10;fillColor=#6a00ff;fontColor=#ffffff;strokeColor=#000000;" vertex="1" parent="1">
                    <mxGeometry x="255" y="1120" width="70" height="60" as="geometry"/>
                </mxCell>
                <mxCell id="107" value="S" style="rounded=1;whiteSpace=wrap;html=1;fillColor=#d80073;fontColor=#ffffff;fontSize=22;strokeColor=#000000;" vertex="1" parent="1">
                    <mxGeometry x="260" y="1145" width="60" height="25" as="geometry"/>
                </mxCell>
                <mxCell id="108" value="statlist" style="rounded=1;whiteSpace=wrap;html=1;verticalAlign=top;arcSize=10;fillColor=#0050ef;fontColor=#ffffff;strokeColor=#000000;" vertex="1" parent="1">
                    <mxGeometry x="170" y="950" width="220" height="60" as="geometry"/>
                </mxCell>
                <mxCell id="109" style="edgeStyle=orthogonalEdgeStyle;html=1;exitX=0.5;exitY=1;exitDx=0;exitDy=0;entryX=0.5;entryY=0;entryDx=0;entryDy=0;endArrow=open;endFill=0;endSize=10;strokeColor=#000000;" edge="1" parent="1" source="110" target="116">
                    <mxGeometry relative="1" as="geometry"/>
                </mxCell>
                <mxCell id="110" value="stat" style="rounded=1;whiteSpace=wrap;html=1;fillColor=#6a00ff;fontColor=#ffffff;strokeColor=#000000;" vertex="1" parent="1">
                    <mxGeometry x="180" y="980" width="60" height="25" as="geometry"/>
                </mxCell>
                <mxCell id="111" value=";" style="rounded=1;whiteSpace=wrap;html=1;fillColor=#d80073;fontColor=#ffffff;fontSize=17;strokeColor=#000000;" vertex="1" parent="1">
                    <mxGeometry x="250" y="980" width="60" height="25" as="geometry"/>
                </mxCell>
                <mxCell id="118" style="edgeStyle=orthogonalEdgeStyle;html=1;exitX=0.5;exitY=1;exitDx=0;exitDy=0;entryX=0.5;entryY=0;entryDx=0;entryDy=0;endArrow=open;endFill=0;endSize=10;strokeColor=#000000;" edge="1" parent="1" source="113" target="98">
                    <mxGeometry relative="1" as="geometry"/>
                </mxCell>
                <mxCell id="113" value="statlist" style="rounded=1;whiteSpace=wrap;html=1;fillColor=#6a00ff;fontColor=#ffffff;strokeColor=#000000;" vertex="1" parent="1">
                    <mxGeometry x="320" y="980" width="60" height="25" as="geometry"/>
                </mxCell>
                <mxCell id="116" value="stat" style="rounded=1;whiteSpace=wrap;html=1;verticalAlign=top;arcSize=10;fillColor=#6a00ff;fontColor=#ffffff;strokeColor=#000000;" vertex="1" parent="1">
                    <mxGeometry x="160" y="1040" width="70" height="60" as="geometry"/>
                </mxCell>
                <mxCell id="117" value="S" style="rounded=1;whiteSpace=wrap;html=1;fillColor=#d80073;fontColor=#ffffff;fontSize=22;strokeColor=#000000;" vertex="1" parent="1">
                    <mxGeometry x="165" y="1065" width="60" height="25" as="geometry"/>
                </mxCell>
                <mxCell id="138" value="statlist" style="rounded=1;whiteSpace=wrap;html=1;verticalAlign=top;arcSize=10;fillColor=#6a00ff;fontColor=#ffffff;strokeColor=#000000;" vertex="1" parent="1">
                    <mxGeometry x="170" y="1290" width="220" height="60" as="geometry"/>
                </mxCell>
                <mxCell id="139" style="edgeStyle=orthogonalEdgeStyle;html=1;exitX=0.5;exitY=1;exitDx=0;exitDy=0;entryX=0.5;entryY=0;entryDx=0;entryDy=0;fontSize=17;endArrow=open;endFill=0;endSize=10;strokeColor=#000000;" edge="1" parent="1" source="140" target="148">
                    <mxGeometry relative="1" as="geometry"/>
                </mxCell>
                <mxCell id="140" value="stat" style="rounded=1;whiteSpace=wrap;html=1;fillColor=#6a00ff;fontColor=#ffffff;strokeColor=#000000;" vertex="1" parent="1">
                    <mxGeometry x="180" y="1320" width="60" height="25" as="geometry"/>
                </mxCell>
                <mxCell id="141" value=";" style="rounded=1;whiteSpace=wrap;html=1;fillColor=#d80073;fontColor=#ffffff;fontSize=17;strokeColor=#000000;" vertex="1" parent="1">
                    <mxGeometry x="250" y="1320" width="60" height="25" as="geometry"/>
                </mxCell>
                <mxCell id="142" style="edgeStyle=orthogonalEdgeStyle;html=1;exitX=0.5;exitY=1;exitDx=0;exitDy=0;entryX=0.5;entryY=0;entryDx=0;entryDy=0;fontSize=17;endArrow=open;endFill=0;endSize=10;strokeColor=#000000;" edge="1" parent="1" source="143" target="150">
                    <mxGeometry relative="1" as="geometry"/>
                </mxCell>
                <mxCell id="143" value="statlist" style="rounded=1;whiteSpace=wrap;html=1;fillColor=#6a00ff;fontColor=#ffffff;strokeColor=#000000;" vertex="1" parent="1">
                    <mxGeometry x="320" y="1320" width="60" height="25" as="geometry"/>
                </mxCell>
                <mxCell id="144" value="stat" style="rounded=1;whiteSpace=wrap;html=1;verticalAlign=top;arcSize=10;fillColor=#0050ef;fontColor=#ffffff;strokeColor=#000000;" vertex="1" parent="1">
                    <mxGeometry x="170" y="1200" width="150" height="60" as="geometry"/>
                </mxCell>
                <mxCell id="145" value="begin" style="rounded=1;whiteSpace=wrap;html=1;fillColor=#d80073;fontColor=#ffffff;fontSize=17;verticalAlign=middle;strokeColor=#000000;" vertex="1" parent="1">
                    <mxGeometry x="180" y="1230" width="60" height="25" as="geometry"/>
                </mxCell>
                <mxCell id="146" style="edgeStyle=orthogonalEdgeStyle;html=1;exitX=0.5;exitY=1;exitDx=0;exitDy=0;entryX=0.5;entryY=0;entryDx=0;entryDy=0;fontSize=17;endArrow=open;endFill=0;endSize=10;strokeColor=#000000;" edge="1" parent="1" source="147" target="138">
                    <mxGeometry relative="1" as="geometry"/>
                </mxCell>
                <mxCell id="147" value="statlist" style="rounded=1;whiteSpace=wrap;html=1;fillColor=#6a00ff;fontColor=#ffffff;strokeColor=#000000;" vertex="1" parent="1">
                    <mxGeometry x="250" y="1230" width="60" height="25" as="geometry"/>
                </mxCell>
                <mxCell id="148" value="stat" style="rounded=1;whiteSpace=wrap;html=1;verticalAlign=top;arcSize=10;fillColor=#6a00ff;fontColor=#ffffff;strokeColor=#000000;" vertex="1" parent="1">
                    <mxGeometry x="175" y="1380" width="70" height="60" as="geometry"/>
                </mxCell>
                <mxCell id="149" value="S" style="rounded=1;whiteSpace=wrap;html=1;fillColor=#d80073;fontColor=#ffffff;fontSize=22;strokeColor=#000000;" vertex="1" parent="1">
                    <mxGeometry x="180" y="1405" width="60" height="25" as="geometry"/>
                </mxCell>
                <mxCell id="150" value="statlist" style="rounded=1;whiteSpace=wrap;html=1;verticalAlign=top;arcSize=10;fillColor=#6a00ff;fontColor=#ffffff;strokeColor=#000000;" vertex="1" parent="1">
                    <mxGeometry x="270" y="1380" width="220" height="60" as="geometry"/>
                </mxCell>
                <mxCell id="151" style="edgeStyle=orthogonalEdgeStyle;html=1;exitX=0.5;exitY=1;exitDx=0;exitDy=0;entryX=0.5;entryY=0;entryDx=0;entryDy=0;fontSize=17;endArrow=open;endFill=0;endSize=10;strokeColor=#000000;" edge="1" parent="1" source="152" target="156">
                    <mxGeometry relative="1" as="geometry"/>
                </mxCell>
                <mxCell id="152" value="stat" style="rounded=1;whiteSpace=wrap;html=1;fillColor=#6a00ff;fontColor=#ffffff;strokeColor=#000000;" vertex="1" parent="1">
                    <mxGeometry x="280" y="1410" width="60" height="25" as="geometry"/>
                </mxCell>
                <mxCell id="153" value=";" style="rounded=1;whiteSpace=wrap;html=1;fillColor=#d80073;fontColor=#ffffff;fontSize=17;strokeColor=#000000;" vertex="1" parent="1">
                    <mxGeometry x="350" y="1410" width="60" height="25" as="geometry"/>
                </mxCell>
                <mxCell id="154" style="edgeStyle=orthogonalEdgeStyle;html=1;exitX=0.5;exitY=1;exitDx=0;exitDy=0;entryX=0.5;entryY=0;entryDx=0;entryDy=0;fontSize=17;endArrow=open;endFill=0;endSize=10;strokeColor=#000000;" edge="1" parent="1" source="155" target="158">
                    <mxGeometry relative="1" as="geometry"/>
                </mxCell>
                <mxCell id="155" value="statlist" style="rounded=1;whiteSpace=wrap;html=1;fillColor=#6a00ff;fontColor=#ffffff;strokeColor=#000000;" vertex="1" parent="1">
                    <mxGeometry x="420" y="1410" width="60" height="25" as="geometry"/>
                </mxCell>
                <mxCell id="156" value="stat" style="rounded=1;whiteSpace=wrap;html=1;verticalAlign=top;arcSize=10;fillColor=#6a00ff;fontColor=#ffffff;strokeColor=#000000;" vertex="1" parent="1">
                    <mxGeometry x="275" y="1470" width="70" height="60" as="geometry"/>
                </mxCell>
                <mxCell id="157" value="S" style="rounded=1;whiteSpace=wrap;html=1;fillColor=#d80073;fontColor=#ffffff;fontSize=22;strokeColor=#000000;" vertex="1" parent="1">
                    <mxGeometry x="280" y="1495" width="60" height="25" as="geometry"/>
                </mxCell>
                <mxCell id="158" value="statlist" style="rounded=1;whiteSpace=wrap;html=1;verticalAlign=top;arcSize=10;fillColor=#6a00ff;fontColor=#ffffff;strokeColor=#000000;" vertex="1" parent="1">
                    <mxGeometry x="415" y="1470" width="70" height="60" as="geometry"/>
                </mxCell>
                <mxCell id="159" value="end" style="rounded=1;whiteSpace=wrap;html=1;fillColor=#d80073;fontColor=#ffffff;fontSize=22;strokeColor=#000000;" vertex="1" parent="1">
                    <mxGeometry x="420" y="1495" width="60" height="25" as="geometry"/>
                </mxCell>
                <mxCell id="174" style="edgeStyle=orthogonalEdgeStyle;html=1;exitX=0.5;exitY=1;exitDx=0;exitDy=0;endArrow=open;endFill=0;endSize=10;strokeColor=#000000;" edge="1" parent="1" source="173">
                    <mxGeometry relative="1" as="geometry">
                        <mxPoint x="365.3333333333335" y="19.999999999999773" as="targetPoint"/>
                    </mxGeometry>
                </mxCell>
                <mxCell id="173" value="Current Symbol" style="text;html=1;fillColor=none;align=center;verticalAlign=middle;whiteSpace=wrap;rounded=0;fontSize=17;" vertex="1" parent="1">
                    <mxGeometry x="335" y="-70" width="60" height="50" as="geometry"/>
                </mxCell>
                <mxCell id="175" value="Shift!" style="text;html=1;fillColor=none;align=center;verticalAlign=middle;whiteSpace=wrap;rounded=0;fontSize=17;" vertex="1" parent="1">
                    <mxGeometry x="240" y="30" width="60" height="50" as="geometry"/>
                </mxCell>
                <mxCell id="161" value="" style="endArrow=none;dashed=1;html=1;dashPattern=1 3;strokeWidth=2;fontSize=17;endSize=10;strokeColor=#000000;" edge="1" parent="1">
                    <mxGeometry x="-120" y="90" width="57.05882352941176" height="50" as="geometry">
                        <mxPoint x="850" y="90" as="sourcePoint"/>
                        <mxPoint x="-120" y="90" as="targetPoint"/>
                    </mxGeometry>
                </mxCell>
                <mxCell id="162" value="" style="endArrow=none;dashed=1;html=1;dashPattern=1 3;strokeWidth=2;fontSize=17;endSize=10;strokeColor=#000000;" edge="1" parent="1">
                    <mxGeometry x="-120" y="160" width="57.05882352941176" height="50" as="geometry">
                        <mxPoint x="850" y="160" as="sourcePoint"/>
                        <mxPoint x="-120" y="160" as="targetPoint"/>
                    </mxGeometry>
                </mxCell>
                <mxCell id="163" value="" style="endArrow=none;dashed=1;html=1;dashPattern=1 3;strokeWidth=2;fontSize=17;endSize=10;strokeColor=#000000;" edge="1" parent="1">
                    <mxGeometry x="-120" y="240" width="57.05882352941176" height="50" as="geometry">
                        <mxPoint x="850" y="240" as="sourcePoint"/>
                        <mxPoint x="-120" y="240" as="targetPoint"/>
                    </mxGeometry>
                </mxCell>
                <mxCell id="164" value="" style="endArrow=none;dashed=1;html=1;dashPattern=1 3;strokeWidth=2;fontSize=17;endSize=10;strokeColor=#000000;" edge="1" parent="1">
                    <mxGeometry x="-120" y="330" width="57.05882352941176" height="50" as="geometry">
                        <mxPoint x="850" y="330" as="sourcePoint"/>
                        <mxPoint x="-120" y="330" as="targetPoint"/>
                    </mxGeometry>
                </mxCell>
                <mxCell id="165" value="" style="endArrow=none;dashed=1;html=1;dashPattern=1 3;strokeWidth=2;fontSize=17;endSize=10;strokeColor=#000000;" edge="1" parent="1">
                    <mxGeometry x="-120" y="420" width="57.05882352941176" height="50" as="geometry">
                        <mxPoint x="850" y="420" as="sourcePoint"/>
                        <mxPoint x="-120" y="420" as="targetPoint"/>
                    </mxGeometry>
                </mxCell>
                <mxCell id="166" value="" style="endArrow=none;dashed=1;html=1;dashPattern=1 3;strokeWidth=2;fontSize=17;endSize=10;strokeColor=#000000;" edge="1" parent="1">
                    <mxGeometry x="-120" y="500" width="57.05882352941176" height="50" as="geometry">
                        <mxPoint x="850" y="500" as="sourcePoint"/>
                        <mxPoint x="-120" y="500" as="targetPoint"/>
                    </mxGeometry>
                </mxCell>
                <mxCell id="167" value="" style="endArrow=none;dashed=1;html=1;dashPattern=1 3;strokeWidth=2;fontSize=17;endSize=10;strokeColor=#000000;" edge="1" parent="1">
                    <mxGeometry x="-120" y="580" width="57.05882352941176" height="50" as="geometry">
                        <mxPoint x="850" y="580" as="sourcePoint"/>
                        <mxPoint x="-120" y="580" as="targetPoint"/>
                    </mxGeometry>
                </mxCell>
                <mxCell id="168" value="" style="endArrow=none;dashed=1;html=1;dashPattern=1 3;strokeWidth=2;fontSize=17;endSize=10;strokeColor=#000000;" edge="1" parent="1">
                    <mxGeometry x="-120" y="670" width="57.05882352941176" height="50" as="geometry">
                        <mxPoint x="850" y="670" as="sourcePoint"/>
                        <mxPoint x="-120" y="670" as="targetPoint"/>
                    </mxGeometry>
                </mxCell>
                <mxCell id="169" value="" style="endArrow=none;dashed=1;html=1;dashPattern=1 3;strokeWidth=2;fontSize=17;endSize=10;strokeColor=#000000;" edge="1" parent="1">
                    <mxGeometry x="-120" y="750" width="57.05882352941176" height="50" as="geometry">
                        <mxPoint x="850" y="750" as="sourcePoint"/>
                        <mxPoint x="-120" y="750" as="targetPoint"/>
                    </mxGeometry>
                </mxCell>
                <mxCell id="170" value="" style="endArrow=none;dashed=1;html=1;dashPattern=1 3;strokeWidth=2;fontSize=17;endSize=10;strokeColor=#000000;" edge="1" parent="1">
                    <mxGeometry x="-120" y="930" width="57.05882352941176" height="50" as="geometry">
                        <mxPoint x="850" y="930" as="sourcePoint"/>
                        <mxPoint x="-120" y="930" as="targetPoint"/>
                    </mxGeometry>
                </mxCell>
                <mxCell id="171" value="" style="endArrow=none;dashed=1;html=1;dashPattern=1 3;strokeWidth=2;fontSize=17;endSize=10;strokeColor=#000000;" edge="1" parent="1">
                    <mxGeometry x="-120" y="1190" width="57.05882352941176" height="50" as="geometry">
                        <mxPoint x="850" y="1190" as="sourcePoint"/>
                        <mxPoint x="-120" y="1190" as="targetPoint"/>
                    </mxGeometry>
                </mxCell>
                <mxCell id="176" value="Reduce 'S' to stat" style="text;html=1;fillColor=none;align=center;verticalAlign=middle;whiteSpace=wrap;rounded=0;fontSize=17;" vertex="1" parent="1">
                    <mxGeometry x="130" y="100" width="100" height="50" as="geometry"/>
                </mxCell>
                <mxCell id="177" value="Shift!" style="text;html=1;fillColor=none;align=center;verticalAlign=middle;whiteSpace=wrap;rounded=0;fontSize=17;" vertex="1" parent="1">
                    <mxGeometry x="130" y="175" width="100" height="50" as="geometry"/>
                </mxCell>
                <mxCell id="178" value="Shift!" style="text;html=1;fillColor=none;align=center;verticalAlign=middle;whiteSpace=wrap;rounded=0;fontSize=17;" vertex="1" parent="1">
                    <mxGeometry x="40" y="255" width="100" height="50" as="geometry"/>
                </mxCell>
                <mxCell id="180" value="Reduce 'S' to stat" style="text;html=1;fillColor=none;align=center;verticalAlign=middle;whiteSpace=wrap;rounded=0;fontSize=17;" vertex="1" parent="1">
                    <mxGeometry x="-50" y="345" width="100" height="50" as="geometry"/>
                </mxCell>
                <mxCell id="181" value="Shift!" style="text;html=1;fillColor=none;align=center;verticalAlign=middle;whiteSpace=wrap;rounded=0;fontSize=17;" vertex="1" parent="1">
                    <mxGeometry x="-50" y="425" width="100" height="50" as="geometry"/>
                </mxCell>
                <mxCell id="183" value="Shift!" style="text;html=1;fillColor=none;align=center;verticalAlign=middle;whiteSpace=wrap;rounded=0;fontSize=17;" vertex="1" parent="1">
                    <mxGeometry x="-140" y="515" width="100" height="50" as="geometry"/>
                </mxCell>
                <mxCell id="184" value="Reduce 'end' to statlist" style="text;html=1;fillColor=none;align=center;verticalAlign=middle;whiteSpace=wrap;rounded=0;fontSize=17;" vertex="1" parent="1">
                    <mxGeometry x="-280" y="595" width="150" height="50" as="geometry"/>
                </mxCell>
                <mxCell id="185" value="Reduce stat ';' statlist to statlist" style="text;html=1;fillColor=none;align=center;verticalAlign=middle;whiteSpace=wrap;rounded=0;fontSize=17;" vertex="1" parent="1">
                    <mxGeometry x="-310" y="680" width="170" height="50" as="geometry"/>
                </mxCell>
                <mxCell id="186" value="Reduce stat ';' statlist to statlist" style="text;html=1;fillColor=none;align=center;verticalAlign=middle;whiteSpace=wrap;rounded=0;fontSize=17;" vertex="1" parent="1">
                    <mxGeometry x="-310" y="810" width="170" height="50" as="geometry"/>
                </mxCell>
                <mxCell id="187" value="Reduce 'begin' statlist to stat" style="text;html=1;fillColor=none;align=center;verticalAlign=middle;whiteSpace=wrap;rounded=0;fontSize=17;" vertex="1" parent="1">
                    <mxGeometry x="-105" y="1030" width="170" height="50" as="geometry"/>
                </mxCell>
            </root>
        </mxGraphModel>
    </diagram>
</mxfile>